<svg id="Group_76" data-name="Group 76" xmlns="http://www.w3.org/2000/svg" viewBox="0 0 73.59 80"><defs><style>.cls-1{fill:#e98024}</style></defs><path id="Path_107" data-name="Path 107" class="cls-1" d="M64.807 19.466l-3.561 3.086A32.174 32.174 0 0 1 36.8 75.49a32.151 32.151 0 0 1-5.223-63.858v5.935l8.783-8.783L31.573 0v6.884a36.818 36.818 0 1 0 33.234 12.582z"/><g id="Group_75" data-name="Group 75" transform="translate(17.804 28.249)"><path id="Path_108" data-name="Path 108" class="cls-1" d="M24.355 37.4H7.737v-2.373l8.309-9.258a26.047 26.047 0 0 0 3.086-4.036 6.571 6.571 0 0 0 .712-3.086 5.672 5.672 0 0 0-1.187-3.323c-.475-.712-1.424-.95-2.849-.95a4.673 4.673 0 0 0-3.8 1.424 4.9 4.9 0 0 0-1.187 3.8H7.5a7.52 7.52 0 0 1 2.136-5.46Q11.773 12 16.046 12a8.011 8.011 0 0 1 5.46 1.9 6.98 6.98 0 0 1 2.136 5.223 9.673 9.673 0 0 1-1.187 4.273 18.328 18.328 0 0 1-3.561 4.51l-6.647 7.359h12.345V37.4z" transform="translate(-7.5 -11.763)"/><path id="Path_109" data-name="Path 109" class="cls-1" d="M30.418 28.992h3.561V31.6h-3.561v5.935h-3.323V31.6H15.7v-1.9l11.157-17.8h3.561zm-11.157 0h7.834V17.123l-.237.95z" transform="translate(3.766 -11.9)"/></g></svg>