<svg xmlns="http://www.w3.org/2000/svg" viewBox="0 0 80 48.684"><defs><style>.a{fill:#e98024}</style></defs><path class="a" d="M21.518 43.101a21.574 21.574 0 0 0 21.517-21.594 6.507 6.507 0 0 0-.085-1.285l7.3-8.354 9.82 9.04a.606.606 0 0 0 .683.214.645.645 0 0 0 .6-.3L72.067 8.868l2.391 2.233a.7.7 0 0 0 .6.214h.213a.847.847 0 0 0 .6-.6l2.519-8.654a.976.976 0 0 0-.213-.9.968.968 0 0 0-.9-.214l-8.624 2.87a.97.97 0 0 0-.6.685.884.884 0 0 0 .3.9l2.391 2.228-10.119 11.349-9.82-9.04a.786.786 0 0 0-.683-.214.645.645 0 0 0-.6.3l-6.916 7.84A21.612 21.612 0 0 0 21.39.001a21.55 21.55 0 0 0 .128 43.1zM76.294 3.213L74.671 8.74l-3.885-3.6zM40.73 21.507a19.145 19.145 0 0 1-6.7 14.566l-11.1-14.48L35.35 8.14a19.284 19.284 0 0 1 5.38 13.367zM22.628 2.228a18.986 18.986 0 0 1 11.228 4.413L22.628 18.679zm-2.22 0v19.365a.409.409 0 0 0 .085.3 3159460.321 3159460.321 0 0 1 .171.171l11.7 15.252A19.22 19.22 0 1 1 20.408 2.228z"/><path class="a" d="M42.443 32.84h6.495v9.101h-6.495zM51.342 22.911h6.495v19.03h-6.495zM60.284 25.062h6.495v16.879h-6.495zM69.368 17.119h6.495v24.822h-6.495zM79.017 46.781H4.872a.977.977 0 0 0-.983.951 1.076 1.076 0 0 0 .983.951h74.145a.952.952 0 1 0 0-1.9z"/></svg>