<svg xmlns="http://www.w3.org/2000/svg" viewBox="0 0 389.656 389.656"><path d="M109.172 0L94.508 14.664a7.769 7.769 0 0 0-3.68-1.008h-80a8 8 0 0 0-8 8v80a8 8 0 0 0 8 8h80a8 8 0 0 0 8-8V32.968l21.656-21.656L109.172 0zM82.828 93.656h-64v-64h60.688L50.828 58.344 40.484 48 29.172 59.312l16 16a8 8 0 0 0 11.312 0l26.344-26.344v44.688zM109.172 144l-14.664 14.664a7.769 7.769 0 0 0-3.68-1.008h-80a8 8 0 0 0-8 8v80a8 8 0 0 0 8 8h80a8 8 0 0 0 8-8v-68.688l21.656-21.656L109.172 144zm-26.344 93.656h-64v-64h60.688l-28.688 28.688L40.484 192l-11.312 11.312 16 16a8 8 0 0 0 11.312 0l26.344-26.344v44.688zM109.172 280l-14.664 14.664a7.769 7.769 0 0 0-3.68-1.008h-80a8 8 0 0 0-8 8v80a8 8 0 0 0 8 8h80a8 8 0 0 0 8-8v-68.688l21.656-21.656L109.172 280zm-26.344 93.656h-64v-64h60.688l-28.688 28.688L40.484 328l-11.312 11.312 16 16a8 8 0 0 0 11.312 0l26.344-26.344v44.688zM154.828 77.656h232v16h-232zM154.828 29.656h232v16h-232zM154.828 221.656h232v16h-232zM154.828 173.656h232v16h-232zM154.828 357.656h232v16h-232zM154.828 309.656h232v16h-232z" fill="#e98024"/></svg>