<svg xmlns="http://www.w3.org/2000/svg" viewBox="0 0 84.338 82.076"><defs><style>.a{fill:none;stroke:#e98024;stroke-miterlimit:10;stroke-width:2px}</style></defs><path class="a" d="M35.697 24.741l-1.913 7.65c2.086.522 8.867 2.782 9.911-1.565 1.043-4.52-5.911-5.385-7.998-6.085zM32.914 36.217l-2.26 8.52c2.608.7 10.606 3.13 11.823-1.565 1.217-5.042-7.128-6.255-9.563-6.955z"/><path class="a" d="M69.08 46.302l.522-2.086A34.749 34.749 0 1 0 2.139 27.524a34.539 34.539 0 0 0 25.386 42.077 35.183 35.183 0 0 0 21.212-1.391m2.434-37.209c-.522 3.3-2.434 5.042-4.868 5.564 3.477 1.739 5.216 4.521 3.477 9.215-2.086 5.907-6.955 6.433-13.392 5.216l-1.565 6.259-3.821-.868 1.565-6.259a14.687 14.687 0 0 1-2.956-.869l-1.565 6.258-3.825-.869 1.567-6.261c-.869-.174-1.739-.522-2.782-.7l-5.042-1.391 1.913-4.347 2.782.7a1.406 1.406 0 0 0 1.739-.869l2.434-10.085.348.174a.607.607 0 0 1-.348-.174l1.739-7.129a2.007 2.007 0 0 0-1.739-2.26l-2.782-.7 1.043-4 5.216 1.391c.869.174 1.565.348 2.434.522l1.739-6.259 3.825.869-1.565 6.086c1.043.174 2.086.522 3.13.7l1.391-5.912 3.825.871-1.565 6.259c4.865 1.739 8.344 4.173 7.648 8.868z"/><g><path class="a" d="M48.563 62.302v-16h34.774v34.774H48.563z"/><path class="a" d="M53.258 62.299l5.738-5.912 5.912 5.912M58.996 72.384V56.735"/><g><path class="a" d="M78.816 65.081l-5.912 5.912-5.737-5.912M72.905 54.996v15.649"/></g></g></svg>