<svg xmlns="http://www.w3.org/2000/svg" viewBox="0 0 80 71.951"><defs><style>.a{fill:#e98024}</style></defs><g transform="translate(0 -.001)"><path class="a" d="M63.168 46.688a1.115 1.115 0 0 0-1.18 1.18v3.539a1.18 1.18 0 1 0 2.359 0v-3.539a1.182 1.182 0 0 0-1.179-1.18zM66.456 42.099a1.115 1.115 0 0 0-1.18 1.18v8.258a1.18 1.18 0 1 0 2.36 0v-8.258a1.182 1.182 0 0 0-1.18-1.18zM71.293 36.392a1.115 1.115 0 0 0-1.18 1.18v14.157a1.18 1.18 0 1 0 2.36 0V37.572a1.269 1.269 0 0 0-1.18-1.18z"/><path class="a" d="M74.411 7.432H26.986c.108.751.215 1.4.323 2.147h48.384a2.157 2.157 0 0 1 2.154 2.147v43.155H30.216a2.04 2.04 0 0 0 .538-2.04l2.046-1.932a16.247 16.247 0 0 0 21.969-6.763 15.826 15.826 0 0 0 1.508-10.842 11.7 11.7 0 0 0-.538-1.825l5.169-5.153v2.791a1.077 1.077 0 0 0 2.154 0v-5.9c0-.107-.108-.107-.108-.215l-.108-.107c-.108-.107-.215-.107-.323-.215-.108 0-.215-.107-.323-.107h-5.707a1.074 1.074 0 1 0 0 2.147h2.8l-4.523 4.509-.323-.644a16.211 16.211 0 0 0-30.261 10.086 4.553 4.553 0 0 0 .215 1.181 1.522 1.522 0 0 0 .215.644l-3.769 3.221-9.046-6.978a1.308 1.308 0 0 0-1.615.215.971.971 0 0 0 .215 1.5l9.692 7.515a1.135 1.135 0 0 0 1.4 0l3.77-3.218.323.644a16.4 16.4 0 0 0 2.046 3.221l-1.508 1.5a2.055 2.055 0 0 0-2.046.537l-6.031 6.119H7.817V26.541a8.225 8.225 0 0 1-2.154-.645v33.172a4.29 4.29 0 0 0 3.661 4.294l-1.938 1.932a2.071 2.071 0 0 0 0 3.006l3.015 3.006a2.087 2.087 0 0 0 3.015 0l7.969-8.051h10.124v2.147h-1.077a5.324 5.324 0 0 0-5.385 5.368 1.016 1.016 0 0 0 1.077 1.074h23.907a1.016 1.016 0 0 0 1.077-1.074 5.324 5.324 0 0 0-5.384-5.368h-1.077v-2.147h31.046a4.313 4.313 0 0 0 4.308-4.294V11.726a4.313 4.313 0 0 0-4.308-4.294zM29.355 51.017l-1.508-1.5 1.292-1.288a18.7 18.7 0 0 0 1.615 1.4zm14.861-1.074a14.029 14.029 0 0 1-16.153-6.656l6.892-5.9 7.646 5.9a3.287 3.287 0 0 0 4.308-.215l7.431-7.407a13.822 13.822 0 0 1-10.124 14.278zm-7.861-26.945a14.031 14.031 0 0 1 15.723 5.9l-7.646 7.622-7.539-5.788a3.254 3.254 0 0 0-4.092.107l-6.569 5.475a14.15 14.15 0 0 1 10.123-13.316zm-9.262 18.25l-.108-.322c-.108-.215-.108-.429-.215-.644a.809.809 0 0 1-.108-.429c0-.107-.108-.429-.108-.644v-.215l7.754-6.441a1.135 1.135 0 0 1 1.4 0l8.184 6.334a1.009 1.009 0 0 0 1.4-.107l7.971-7.948.108.322a1.522 1.522 0 0 1 .215.644c0 .215.108.322.108.429a2.221 2.221 0 0 0 .215.644v.215l-8.508 8.481a1.017 1.017 0 0 1-1.4.107l-8.4-6.441a1.135 1.135 0 0 0-1.4 0zm-1.508 9.017l3.015 3.006-1.292 1.288-3.015-3.006zm-17.768 8.91v-2.143h7.969l-4.308 4.29h-1.4a2.183 2.183 0 0 1-2.261-2.147zm12.492 2.469l-8.292 8.266-3.123-3.005 10.231-10.2 3.554-3.543 3.123 3.006zm25.415 6.119a3.136 3.136 0 0 1 3.015 2.147H27.524a3.239 3.239 0 0 1 3.015-2.147zm-11.846-2.147v-2.147h8.615v2.147zm43.969-6.441a2.157 2.157 0 0 1-2.154 2.147H23.755l4.308-4.29h49.783z"/><path class="a" d="M25.954 12.86h2.006v-.118a10.8 10.8 0 0 0-.118-1.888zM21.472 1.652l-6.253 6.253V9.91l7.432-7.55a6.249 6.249 0 0 0-1.18-.708zM18.64.472l-3.539 3.539v1.888L20.056.944A6.651 6.651 0 0 0 18.64.472zM16.989.118A8.929 8.929 0 0 0 15.219 0v2.006zM20.056 12.859l6.37-6.252a7.162 7.162 0 0 0-.826-1.18l-7.55 7.55zM24.775 4.247l-.472-.472-.472-.472-8.612 8.612v1.062h.944zM24.067 12.859l3.539-3.539c-.118-.472-.354-.944-.472-1.416l-4.955 4.955z"/><path class="a" d="M12.977 2.242a12.977 12.977 0 1 0 12.977 12.977H12.977z"/><ellipse class="a" cx="1.888" cy="1.888" rx="1.888" ry="1.888" transform="translate(59.076 11.111)"/><ellipse class="a" cx="1.888" cy="1.888" rx="1.888" ry="1.888" transform="translate(63.377 11.111)"/><ellipse class="a" cx="1.888" cy="1.888" rx="1.888" ry="1.888" transform="translate(68.922 11.111)"/></g></svg>