<svg version="1.1" id="svg" xmlns="http://www.w3.org/2000/svg" x="0" y="0" viewBox="0 0 150 150" xml:space="preserve"><style>.orange_x002D_fill,.st0{fill:#e98024}</style><switch><g><path class="st0" d="M62.1 139.7h5.2v-22.2l-5.2 5.1zM41.4 124.1h5.2v15.5h-5.2zM36.2 139.7v-7.2l-3.5 7.2z"/><path class="orange_x002D_fill" d="M0 142.2c0 4.3 3.5 7.8 7.8 7.8s7.8-3.5 7.8-7.8v-7.8H5.2v-5.2h10.3V124H5.2v-5h10.3v-5.2H5.2v-5.2h10.3v-5.2H5.2v-5.2h10.3V93H5.2v-5.2h10.3v-5.2H5.2v-5.2h10.3v-5.2H5.2V67h10.3v-5.2H5.2v-5.2h10.3v-5.2H0v90.8zM108.7 72.4H150c-1.3-22.2-19.1-40-41.3-41.3v41.3z"/><path class="st0" d="M51.8 124.1H57v15.5h-5.2z"/><path class="orange_x002D_fill" d="M64.7 75c0-21.9 17.2-39.9 38.8-41.3v-7.9h2.6c6.4 0 12.5 1.3 18.1 3.5V0H20.7v142.3c0 2.9-1 5.6-2.7 7.8h98.4c4.3 0 7.8-3.5 7.8-7.8v-30.1c-5.5 2.7-11.6 4.2-18.1 4.2-22.8 0-41.4-18.6-41.4-41.4zm49.1-69.8h5.2v5.2h-5.2V5.2zm-51.7 0h46.6v5.2H62.1V5.2zm0 10.3H119v5.2H62.1v-5.2zm0 10.4h36.2V31H62.1v-5.1zM25.9 38.8h5.2v1.3c0 3.6 2.9 6.5 6.5 6.5h7.8c3.6 0 6.5-2.9 6.5-6.5s-2.9-6.5-6.5-6.5h-7.8C31.2 33.6 26 28.4 26 22s5.2-11.6 11.6-11.6h1.3V5.2H44v5.2h1.3c6.4 0 11.6 5.2 11.6 11.6v1.3h-5.2V22c0-3.6-2.9-6.5-6.5-6.5h-7.8c-3.6 0-6.5 2.9-6.5 6.5s2.9 6.5 6.5 6.5h7.8c6.4 0 11.6 5.2 11.6 11.6s-5.2 11.6-11.6 11.6H44v5.2h-5.2v-5.2h-1.3c-6.4 0-11.6-5.2-11.6-11.6v-1.3zm0 23.3h33.6v5.2H25.9v-5.2zm0 10.3h33.6v5.2H25.9v-5.2zm0 10.4h33.6V88H25.9v-5.2zm56.9 62H25.9V98.3h5.2v33l6.2-12.3h21.2l12.2-12.2 3.7 3.7-1.8 1.8v27.4h10.3v5.1zm10.3-15.5H88v-5.2h5.2v5.2zm13 0h-5.2v-5.2h5.2v5.2zm7.7-5.2h5.2v5.2h-5.2v-5.2z"/><path class="orange_x002D_fill" d="M103.5 111.1V38.9c-18.8 1.3-33.6 17-33.6 36.1s14.8 34.7 33.6 36.1zM108.7 111.1c17.9-1.3 32.2-15.6 33.5-33.5h-33.5v33.5z"/></g></switch></svg>