<svg xmlns="http://www.w3.org/2000/svg" viewBox="0 0 82 82"><defs><style>.a{fill:none;stroke:#e98024;stroke-miterlimit:10;stroke-width:2px}</style></defs><circle class="a" cx="34.783" cy="34.783" r="34.783" transform="translate(6.217 6.217)"/><path class="a" d="M65.348 16.652L81 1M70.565 1H81v10.435M16.652 16.652L1 1M11.435 1H1v10.435M16.652 65.348L1 81M11.435 81H1V70.565M65.348 65.348L81 81M70.565 81H81V70.565M30.565 56.652H20.13V41h10.435M20.13 46.217h8.696M20.13 51.435h8.696M53.174 46.217h8.696M53.174 51.435h8.696"/><g><path class="a" d="M37.348 29.348h7.478l8.348 13.043A13.489 13.489 0 0 1 46.044 61a14.386 14.386 0 0 1-10.087 0 13.617 13.617 0 0 1-7.13-18.609zM37.347 29.348l-5.739-7.478h18.783l-5.739 7.478zM41 37.522V41M41 53.174v3.478"/><path class="a" d="M44.648 43.087A2.009 2.009 0 0 0 42.565 41h-2.956a2.3 2.3 0 0 0-2.261 2.261 2.652 2.652 0 0 0 1.217 2.087l4.87 2.783a2.714 2.714 0 0 1 1.391 2.261A2.561 2.561 0 0 1 42.218 53h-2.609a2.009 2.009 0 0 1-2.087-2.087"/></g><path class="a" d="M51.435 41H61.87v15.652H51.435"/></svg>