<svg xmlns="http://www.w3.org/2000/svg" viewBox="0 0 430.605 430.605" width="512" height="512"><g fill="#D80027"><path d="M189.939 85.443c-73.326 0-132.981 59.655-132.981 132.982 0 73.326 59.655 132.981 132.981 132.981S322.92 291.751 322.92 218.425c0-2.726-.093-5.43-.255-8.115h27.273v-5h-27.665c-6.607-67.193-63.433-119.867-132.334-119.867zm103.636 83.198c-3.552-2.59-7.405-5.06-11.554-7.395-7.39-4.159-15.502-7.746-24.151-10.751-3.005-8.649-6.593-16.762-10.752-24.152-2.334-4.148-4.804-8.002-7.394-11.553 23.469 11.319 42.532 30.381 53.851 53.851zm8.518 36.668h-33.755c-.644-11.371-2.14-22.429-4.402-32.974 18.765 8.476 32.517 20.014 38.157 32.974zm-75.616 19.883l14.883-14.883h9.191c.104 2.685.161 5.39.161 8.115 0 19.176-2.638 37.433-7.245 53.526-16.093 4.608-34.351 7.245-53.526 7.245s-37.434-2.638-53.526-7.245c-4.607-16.093-7.245-34.35-7.245-53.526s2.638-37.433 7.245-53.526c16.093-4.607 34.35-7.245 53.526-7.245s37.434 2.638 53.526 7.245c3.544 12.378 5.919 26.038 6.827 40.411H239.29l-16.348 16.348 3.535 3.535zm-36.538-121.749c18.203 0 34.842 16.083 46.09 40.985-14.563-3.124-30.113-4.775-46.09-4.775-15.977 0-31.527 1.651-46.09 4.775 11.249-24.902 27.887-40.985 46.09-40.985zm-49.785 11.346c-2.59 3.551-5.06 7.405-7.394 11.553-4.159 7.39-7.747 15.503-10.752 24.152-8.649 3.005-16.762 6.592-24.151 10.751-4.148 2.334-8.002 4.804-11.554 7.395 11.32-23.469 30.383-42.531 53.851-53.851zm-24.211 57.547c-3.125 14.561-4.775 30.113-4.775 46.089 0 15.976 1.65 31.527 4.774 46.089-24.902-11.248-40.984-27.887-40.984-46.089 0-18.202 16.082-34.841 40.985-46.089zm-29.638 95.873c3.551 2.59 7.404 5.06 11.553 7.394 7.39 4.159 15.502 7.746 24.152 10.751 3.005 8.65 6.592 16.762 10.751 24.152 2.334 4.148 4.804 8.002 7.394 11.553-23.469-11.319-42.531-30.381-53.85-53.85zm103.634 65.197c-18.203 0-34.842-16.082-46.09-40.985 14.563 3.124 30.113 4.775 46.09 4.775 15.977 0 31.527-1.651 46.09-4.775-11.248 24.903-27.886 40.985-46.09 40.985zm49.786-11.346c2.59-3.551 5.06-7.405 7.394-11.553 4.159-7.39 7.746-15.502 10.751-24.152 8.65-3.005 16.763-6.592 24.152-10.751 4.148-2.334 8.002-4.804 11.553-7.394-11.32 23.468-30.382 42.53-53.85 53.85zm24.211-57.546c3.124-14.562 4.774-30.113 4.774-46.089 0-2.72-.064-5.422-.158-8.115h35.288a31.558 31.558 0 0 1 1.08 8.115c.001 18.202-16.081 34.841-40.984 46.089zM289.605 56.728h78v28h-78zM352.605 193.809h78v28h-78zM263.274 73.229h22.24v-5h-24.761L244.15 90.684l4.02 2.972zM0 345.877h78v28H0zM103.054 357.377h-22.24v5h24.761l16.603-22.455-4.02-2.973z"/></g></svg>