<svg xmlns="http://www.w3.org/2000/svg" viewBox="0 0 70.015 81.5"><defs><style>.a{fill:#e98024}.b{fill:none;stroke:#e98024;stroke-width:3px}</style></defs><path class="a" d="M45.565 0H27.306a3.636 3.636 0 0 0-3.652 3.651v6.439h10.093a6.341 6.341 0 0 1 6.34 6.338v2.18l3.956 3.955a1.386 1.386 0 0 0 .964.406 1.6 1.6 0 0 0 .964-.355 1.458 1.458 0 0 0 .456-1.014v-3.246a3.694 3.694 0 0 0 2.942-3.6V3.651A3.836 3.836 0 0 0 45.565 0zM45.565 25.503h-5.528v1.977a6.341 6.341 0 0 1-6.34 6.338H23.603v6.439a3.636 3.636 0 0 0 3.652 3.646h12.528l4.159 4.158a1.386 1.386 0 0 0 .964.406 1.6 1.6 0 0 0 .964-.355 1.458 1.458 0 0 0 .456-1.014v-3.241a3.694 3.694 0 0 0 2.942-3.6v-11.1a3.679 3.679 0 0 0-3.703-3.654z"/><path class="a" d="M14.676 31.077v3.245a1.382 1.382 0 0 0 1.42 1.369 1.386 1.386 0 0 0 .964-.406l4.159-4.158h12.528a3.636 3.636 0 0 0 3.652-3.65V16.428a3.636 3.636 0 0 0-3.652-3.651h-18.26a3.636 3.636 0 0 0-3.652 3.651v11.049a3.51 3.51 0 0 0 2.841 3.6zm5.63-10.952l2.739-.2 1.014-2.535a.585.585 0 0 1 1.065 0l1.017 2.536 2.739.2a.569.569 0 0 1 .3 1.014l-2.08 1.775.659 2.636a.562.562 0 0 1-.862.608l-1.834-1.116-.5-.3-2.333 1.42a.57.57 0 0 1-.862-.608l.659-2.636-2.076-1.776a.584.584 0 0 1 .355-1.014z"/><g><path class="b" d="M58.142 51.731a5.652 5.652 0 0 0 5.639-5.738 5.639 5.639 0 0 0-11.278 0 5.652 5.652 0 0 0 5.639 5.738zM11.872 51.731a5.736 5.736 0 0 0 5.74-5.738 5.69 5.69 0 0 0-11.379 0 5.652 5.652 0 0 0 5.639 5.738zM60.861 52.938a23.657 23.657 0 0 0-5.337 0 8.354 8.354 0 0 0-7.653 8.054v.805a1.083 1.083 0 0 0 1.007 1.007h18.63a1.083 1.083 0 0 0 1.007-1.007v-.805a8.431 8.431 0 0 0-7.654-8.054zM22.244 61.797v-.805c0-4.027-3.323-7.55-7.754-8.053a23.657 23.657 0 0 0-5.337 0A8.431 8.431 0 0 0 1.5 60.992v.805a1.083 1.083 0 0 0 1.007 1.007h18.73a1.083 1.083 0 0 0 1.007-1.007z"/><g><path class="b" d="M37.929 69.174a25.957 25.957 0 0 0-5.857 0 9.079 9.079 0 0 0-8.399 8.837v.884a1.044 1.044 0 0 0 1.105 1.1h20.555a1.107 1.107 0 0 0 1.105-1.1v-.884a9.363 9.363 0 0 0-8.509-8.837zM28.757 61.551a6.272 6.272 0 0 0 6.189 6.3 6.242 6.242 0 1 0-6.189-6.3z"/></g></g></svg>