<svg xmlns="http://www.w3.org/2000/svg" viewBox="0 0 70.84 80"><defs><style>.a{fill:#e98024}</style></defs><path class="a" d="M35.257 0a3.453 3.453 0 0 0-3.542 3.347 3.453 3.453 0 0 0 3.542 3.347 3.453 3.453 0 0 0 3.542-3.347A3.453 3.453 0 0 0 35.257 0M33.974 8.205h2.892a3.456 3.456 0 0 1 3.614 3.264v6.528a.691.691 0 0 1-.723.653h-8.674a.69.69 0 0 1-.723-.653v-6.528a3.456 3.456 0 0 1 3.614-3.264"/><path class="a" d="M33.975 9.51a2.074 2.074 0 0 0-2.169 1.958v5.876h7.229v-5.876a2.074 2.074 0 0 0-2.169-1.958zM42.739 11.302a.774.774 0 0 1 .27.081l17.35 9.045a.618.618 0 0 1 .265.89.743.743 0 0 1-.626.326.79.79 0 0 1-.361-.087l-17.349-9.042a.619.619 0 0 1-.266-.893.753.753 0 0 1 .717-.32M28.102 11.345a.748.748 0 0 1 .717.321.622.622 0 0 1-.266.893l-17.349 9.044a.774.774 0 0 1-.361.087.739.739 0 0 1-.626-.326.619.619 0 0 1 .265-.89l17.349-9.044a.779.779 0 0 1 .271-.085M5.102 16.077a3.456 3.456 0 0 1 3.615 3.264 3.456 3.456 0 0 1-3.615 3.264 3.456 3.456 0 0 1-3.614-3.264 3.456 3.456 0 0 1 3.614-3.264M65.822 16.077a3.456 3.456 0 0 1 3.615 3.264 3.456 3.456 0 0 1-3.615 3.264 3.456 3.456 0 0 1-3.614-3.264 3.456 3.456 0 0 1 3.614-3.264"/><path class="a" d="M5.103 17.382a2.074 2.074 0 0 0-2.169 1.958 2.074 2.074 0 0 0 2.169 1.959 2.074 2.074 0 0 0 2.168-1.959 2.074 2.074 0 0 0-2.168-1.958M65.823 17.382a2.074 2.074 0 0 0-2.169 1.958 2.074 2.074 0 0 0 2.169 1.959 2.074 2.074 0 0 0 2.168-1.959 2.074 2.074 0 0 0-2.168-1.958M42.084 19.662a.785.785 0 0 1 .395.084.618.618 0 0 1 .266.891.766.766 0 0 1-.986.24.62.62 0 0 1-.268-.888.734.734 0 0 1 .593-.327M28.623 19.664a.739.739 0 0 1 .64.329.62.62 0 0 1-.267.89.769.769 0 0 1-.986-.242.62.62 0 0 1 .269-.891.8.8 0 0 1 .344-.086M26.113 20.962a.741.741 0 0 1 .643.329.62.62 0 0 1-.267.89.767.767 0 0 1-.986-.24.62.62 0 0 1 .264-.891.8.8 0 0 1 .346-.088M44.592 20.962a.8.8 0 0 1 .4.084.618.618 0 0 1 .263.891.768.768 0 0 1-.986.243.621.621 0 0 1-.269-.89.738.738 0 0 1 .592-.328M23.605 22.263a.739.739 0 0 1 .64.329.618.618 0 0 1-.265.89.769.769 0 0 1-.986-.24.62.62 0 0 1 .267-.893.8.8 0 0 1 .344-.086M47.098 22.263a.8.8 0 0 1 .4.084.618.618 0 0 1 .264.891.766.766 0 0 1-.986.24.62.62 0 0 1-.268-.888.738.738 0 0 1 .59-.327M21.099 23.561a.739.739 0 0 1 .64.329.62.62 0 0 1-.267.89.767.767 0 0 1-.986-.24.62.62 0 0 1 .266-.892.8.8 0 0 1 .347-.087M49.609 23.56a.8.8 0 0 1 .394.086.62.62 0 0 1 .269.89.767.767 0 0 1-.986.244.621.621 0 0 1-.272-.892.734.734 0 0 1 .595-.328M3.614 23.872h2.892a3.456 3.456 0 0 1 3.614 3.264v6.528a.691.691 0 0 1-.723.653H.723A.691.691 0 0 1 0 33.664v-6.528a3.456 3.456 0 0 1 3.614-3.264M64.334 23.872h2.892a3.456 3.456 0 0 1 3.614 3.264v6.528a.691.691 0 0 1-.723.653h-8.674a.691.691 0 0 1-.723-.653v-6.528a3.456 3.456 0 0 1 3.614-3.264M52.116 24.858a.8.8 0 0 1 .395.086.62.62 0 0 1 .269.89.767.767 0 0 1-.986.244.62.62 0 0 1-.267-.891.735.735 0 0 1 .589-.329M18.591 24.861a.74.74 0 0 1 .64.326.618.618 0 0 1-.258.892.769.769 0 0 1-.993-.239.62.62 0 0 1 .267-.893.8.8 0 0 1 .344-.086"/><path class="a" d="M3.615 25.178a2.074 2.074 0 0 0-2.169 1.958v5.876h7.229v-5.876a2.074 2.074 0 0 0-2.169-1.958zM64.335 25.178a2.074 2.074 0 0 0-2.169 1.958v5.876h7.229v-5.876a2.074 2.074 0 0 0-2.169-1.958zM16.084 26.159a.739.739 0 0 1 .64.329.62.62 0 0 1-.267.89.769.769 0 0 1-.986-.242.62.62 0 0 1 .266-.891.774.774 0 0 1 .347-.086M54.624 26.159a.8.8 0 0 1 .4.084.618.618 0 0 1 .264.891.766.766 0 0 1-.986.24.62.62 0 0 1-.268-.888.738.738 0 0 1 .59-.327M12.379 27.395a.779.779 0 0 1 .27.084l15.9 8.291a.622.622 0 0 1 .265.893.743.743 0 0 1-.626.326.79.79 0 0 1-.361-.087L11.928 28.61a.619.619 0 0 1-.266-.893.753.753 0 0 1 .717-.322M35.462 27.827a3.456 3.456 0 0 1 3.615 3.264 3.456 3.456 0 0 1-3.615 3.264 3.456 3.456 0 0 1-3.614-3.264 3.456 3.456 0 0 1 3.614-3.264"/><path class="a" d="M35.463 29.133a2.074 2.074 0 0 0-2.169 1.958 2.074 2.074 0 0 0 2.169 1.959 2.074 2.074 0 0 0 2.168-1.959 2.073 2.073 0 0 0-2.168-1.958M12.331 30.721a.691.691 0 0 1 .723.653.691.691 0 0 1-.723.653.691.691 0 0 1-.723-.653.691.691 0 0 1 .723-.653M58.594 30.721a.691.691 0 0 1 .723.653.691.691 0 0 1-.723.653.691.691 0 0 1-.723-.653.691.691 0 0 1 .723-.653M12.331 33.332a.691.691 0 0 1 .723.653.691.691 0 0 1-.723.653.691.691 0 0 1-.723-.653.691.691 0 0 1 .723-.653M58.594 33.332a.691.691 0 0 1 .723.653.691.691 0 0 1-.723.653.691.691 0 0 1-.723-.653.691.691 0 0 1 .723-.653M5.103 35.622a.691.691 0 0 1 .723.653v9.139a.69.69 0 0 1-.723.653.691.691 0 0 1-.723-.653v-9.139a.691.691 0 0 1 .723-.653M33.974 35.622h2.892a3.456 3.456 0 0 1 3.614 3.264v6.528a.691.691 0 0 1-.723.653h-8.674a.69.69 0 0 1-.723-.653v-6.528a3.456 3.456 0 0 1 3.614-3.264M65.823 35.622a.691.691 0 0 1 .723.653v9.139a.69.69 0 0 1-.723.653.691.691 0 0 1-.723-.653v-9.139a.691.691 0 0 1 .723-.653M12.331 35.944a.691.691 0 0 1 .723.653.691.691 0 0 1-.723.653.691.691 0 0 1-.723-.653.691.691 0 0 1 .723-.653M58.594 35.944a.691.691 0 0 1 .723.653.691.691 0 0 1-.723.653.691.691 0 0 1-.723-.653.691.691 0 0 1 .723-.653M12.331 38.555a.691.691 0 0 1 .723.653.691.691 0 0 1-.723.653.691.691 0 0 1-.723-.653.691.691 0 0 1 .723-.653M58.594 38.555a.691.691 0 0 1 .723.653.691.691 0 0 1-.723.653.691.691 0 0 1-.723-.653.691.691 0 0 1 .723-.653M12.331 41.166a.691.691 0 0 1 .723.653.691.691 0 0 1-.723.653.691.691 0 0 1-.723-.653.691.691 0 0 1 .723-.653M58.594 41.166a.691.691 0 0 1 .723.653.691.691 0 0 1-.723.653.691.691 0 0 1-.723-.653.691.691 0 0 1 .723-.653M12.331 43.777a.691.691 0 0 1 .723.653.691.691 0 0 1-.723.653.691.691 0 0 1-.723-.653.691.691 0 0 1 .723-.653M58.594 43.777a.691.691 0 0 1 .723.653.691.691 0 0 1-.723.653.691.691 0 0 1-.723-.653.691.691 0 0 1 .723-.653M12.331 46.388a.691.691 0 0 1 .723.653.691.691 0 0 1-.723.653.691.691 0 0 1-.723-.653.691.691 0 0 1 .723-.653M58.594 46.388a.691.691 0 0 1 .723.653.691.691 0 0 1-.723.653.691.691 0 0 1-.723-.653.691.691 0 0 1 .723-.653M5.102 47.411a3.456 3.456 0 0 1 3.615 3.264 3.456 3.456 0 0 1-3.615 3.264 3.456 3.456 0 0 1-3.614-3.264 3.456 3.456 0 0 1 3.614-3.264M65.822 47.411a3.456 3.456 0 0 1 3.615 3.264 3.456 3.456 0 0 1-3.615 3.264 3.456 3.456 0 0 1-3.614-3.264 3.456 3.456 0 0 1 3.614-3.264M35.463 48.678a.691.691 0 0 1 .723.653v9.047a.69.69 0 0 1-.723.653.691.691 0 0 1-.723-.653v-9.047a.691.691 0 0 1 .723-.653"/><path class="a" d="M5.103 48.717a2.074 2.074 0 0 0-2.169 1.958 2.074 2.074 0 0 0 2.169 1.959 2.074 2.074 0 0 0 2.168-1.959 2.074 2.074 0 0 0-2.168-1.958M65.823 48.717a2.074 2.074 0 0 0-2.169 1.958 2.074 2.074 0 0 0 2.169 1.959 2.074 2.074 0 0 0 2.168-1.959 2.074 2.074 0 0 0-2.168-1.958M12.331 49a.691.691 0 0 1 .723.653.691.691 0 0 1-.723.653.691.691 0 0 1-.723-.653.691.691 0 0 1 .723-.653M58.594 49a.691.691 0 0 1 .723.653.691.691 0 0 1-.723.653.691.691 0 0 1-.723-.653.691.691 0 0 1 .723-.653M12.3 51.613a.8.8 0 0 1 .395.086.62.62 0 0 1 .266.89.768.768 0 0 1-.986.243.62.62 0 0 1-.268-.89.735.735 0 0 1 .593-.329M58.583 51.613a.741.741 0 0 1 .643.326.62.62 0 0 1-.261.892.769.769 0 0 1-.992-.241.62.62 0 0 1 .266-.891.792.792 0 0 1 .344-.086M56.076 52.911a.739.739 0 0 1 .64.329.62.62 0 0 1-.265.89.769.769 0 0 1-.988-.238.62.62 0 0 1 .266-.894.792.792 0 0 1 .347-.087M14.807 52.914a.788.788 0 0 1 .395.084.621.621 0 0 1 .27.892.767.767 0 0 1-.987.24.62.62 0 0 1-.267-.889.738.738 0 0 1 .589-.327M17.315 54.211a.8.8 0 0 1 .394.086.62.62 0 0 1 .269.89.768.768 0 0 1-.986.243.622.622 0 0 1-.269-.891.738.738 0 0 1 .592-.328M53.565 54.214a.741.741 0 0 1 .643.329.62.62 0 0 1-.267.89.769.769 0 0 1-.986-.242.62.62 0 0 1 .266-.891.792.792 0 0 1 .344-.086M3.614 55.206h2.892a3.456 3.456 0 0 1 3.614 3.264v6.528a.691.691 0 0 1-.723.653H.723A.691.691 0 0 1 0 64.998V58.47a3.456 3.456 0 0 1 3.614-3.264M64.334 55.206h2.892a3.456 3.456 0 0 1 3.614 3.264v6.528a.691.691 0 0 1-.723.653h-8.674a.691.691 0 0 1-.723-.653V58.47a3.456 3.456 0 0 1 3.614-3.264M19.822 55.51a.784.784 0 0 1 .4.086.62.62 0 0 1 .266.89.768.768 0 0 1-.986.243.62.62 0 0 1-.27-.89.735.735 0 0 1 .59-.329M51.058 55.515a.737.737 0 0 1 .64.326.619.619 0 0 1-.259.892.769.769 0 0 1-.993-.239.62.62 0 0 1 .265-.894.777.777 0 0 1 .347-.085"/><path class="a" d="M3.615 56.512a2.074 2.074 0 0 0-2.169 1.958v5.876h7.229V58.47a2.074 2.074 0 0 0-2.169-1.958zM64.335 56.512a2.074 2.074 0 0 0-2.169 1.958v5.876h7.229V58.47a2.074 2.074 0 0 0-2.169-1.958zM22.333 56.81a.788.788 0 0 1 .394.084.62.62 0 0 1 .27.89.767.767 0 0 1-.986.244.622.622 0 0 1-.273-.89.737.737 0 0 1 .595-.328M48.55 56.813a.739.739 0 0 1 .64.329.62.62 0 0 1-.267.89.769.769 0 0 1-.986-.242.62.62 0 0 1 .269-.891.792.792 0 0 1 .344-.086M46.04 58.103a.737.737 0 0 1 .64.326.619.619 0 0 1-.259.892.769.769 0 0 1-.993-.239.62.62 0 0 1 .265-.894.777.777 0 0 1 .347-.085M24.839 58.111a.787.787 0 0 1 .395.086.62.62 0 0 1 .269.89.768.768 0 0 1-.986.243.62.62 0 0 1-.268-.89.735.735 0 0 1 .59-.329M12.379 58.788a.774.774 0 0 1 .27.081l15.9 8.293a.619.619 0 0 1 .265.89.743.743 0 0 1-.626.326.79.79 0 0 1-.36-.09l-15.9-8.287a.616.616 0 0 1-.266-.891.753.753 0 0 1 .717-.322M58.463 58.834a.748.748 0 0 1 .717.321.621.621 0 0 1-.266.893l-15.9 8.292a.774.774 0 0 1-.361.087.739.739 0 0 1-.626-.326.621.621 0 0 1 .265-.893l15.899-8.292a.747.747 0 0 1 .272-.082M27.347 59.411a.782.782 0 0 1 .4.084.619.619 0 0 1 .264.892.77.77 0 0 1-.986.24.62.62 0 0 1-.268-.889.738.738 0 0 1 .59-.327M43.533 59.411a.741.741 0 0 1 .643.326.62.62 0 0 1-.261.892.769.769 0 0 1-.992-.241.62.62 0 0 1 .266-.891.775.775 0 0 1 .344-.086M41.025 60.707a.741.741 0 0 1 .643.326.62.62 0 0 1-.261.892.769.769 0 0 1-.992-.241.62.62 0 0 1 .266-.891.775.775 0 0 1 .344-.086M29.857 60.709a.787.787 0 0 1 .395.086.62.62 0 0 1 .269.89.767.767 0 0 1-.986.244.621.621 0 0 1-.269-.892.738.738 0 0 1 .591-.328M35.595 61.76a3.456 3.456 0 0 1 3.615 3.264 3.456 3.456 0 0 1-3.615 3.264 3.456 3.456 0 0 1-3.614-3.264 3.456 3.456 0 0 1 3.614-3.264"/><path class="a" d="M35.596 63.065a2.074 2.074 0 0 0-2.169 1.958 2.074 2.074 0 0 0 2.169 1.959 2.074 2.074 0 0 0 2.168-1.959 2.074 2.074 0 0 0-2.168-1.958M34.107 69.555h2.892a3.456 3.456 0 0 1 3.614 3.264v6.528a.691.691 0 0 1-.723.653h-8.674a.691.691 0 0 1-.723-.653v-6.528a3.456 3.456 0 0 1 3.614-3.264"/><path class="a" d="M34.108 70.861a2.074 2.074 0 0 0-2.169 1.958v5.876h7.229v-5.876a2.074 2.074 0 0 0-2.169-1.958z"/></svg>