<svg xmlns="http://www.w3.org/2000/svg" viewBox="0 0 83 83"><defs><style>.cls-1{fill:none;stroke:#e98024;stroke-miterlimit:10;stroke-width:3px}</style></defs><g id="Group_74" data-name="Group 74" transform="translate(.5 .5)"><g id="Group_70" data-name="Group 70" transform="translate(1 23.857)"><path id="Rectangle_60" data-name="Rectangle 60" class="cls-1" d="M0 0h57.143v57.143H0z"/><path id="Line_8" data-name="Line 8" class="cls-1" transform="translate(5.714 17.143)" d="M0 0h20.952"/><path id="Line_9" data-name="Line 9" class="cls-1" transform="translate(30.476 17.143)" d="M0 0h20.952"/><path id="Line_10" data-name="Line 10" class="cls-1" transform="translate(5.714 24.762)" d="M0 0h20.952"/><path id="Line_11" data-name="Line 11" class="cls-1" transform="translate(30.476 24.762)" d="M0 0h20.952"/><path id="Line_12" data-name="Line 12" class="cls-1" transform="translate(5.714 32.381)" d="M0 0h20.952"/><path id="Line_13" data-name="Line 13" class="cls-1" transform="translate(30.476 32.381)" d="M0 0h20.952"/><path id="Rectangle_61" data-name="Rectangle 61" class="cls-1" transform="translate(7.619 40)" d="M0 0h41.905v9.524H0z"/><path id="Line_14" data-name="Line 14" class="cls-1" transform="translate(38.476 7.429)" d="M6.476 0H0"/><path id="Line_15" data-name="Line 15" class="cls-1" transform="translate(48 4.762)" d="M0 0l5.333 5.333"/><path id="Line_16" data-name="Line 16" class="cls-1" transform="translate(48 4.762)" d="M5.333 0L0 5.333"/></g><g id="Group_71" data-name="Group 71" transform="translate(8.619 16.238)"><path id="Path_104" data-name="Path 104" class="cls-1" d="M5 16.619V9h57.143v57.143h-7.619" transform="translate(-5 -9)"/><path id="Line_17" data-name="Line 17" class="cls-1" transform="translate(38.095 7.619)" d="M7.619 0H0"/><path id="Line_18" data-name="Line 18" class="cls-1" transform="translate(48 4.762)" d="M0 0l5.333 5.333"/><path id="Line_19" data-name="Line 19" class="cls-1" transform="translate(48 4.762)" d="M5.333 0L0 5.333"/></g><g id="Group_72" data-name="Group 72" transform="translate(16.238 8.619)"><path id="Path_105" data-name="Path 105" class="cls-1" d="M9 12.619V5h57.143v57.143h-7.619" transform="translate(-9 -5)"/><path id="Line_20" data-name="Line 20" class="cls-1" transform="translate(38.095 7.619)" d="M7.619 0H0"/><path id="Line_21" data-name="Line 21" class="cls-1" transform="translate(48 4.762)" d="M0 0l5.333 5.333"/><path id="Line_22" data-name="Line 22" class="cls-1" transform="translate(48 4.762)" d="M5.333 0L0 5.333"/></g><g id="Group_73" data-name="Group 73" transform="translate(23.857 1)"><path id="Path_106" data-name="Path 106" class="cls-1" d="M13 8.619V1h57.143v57.143h-7.619" transform="translate(-13 -1)"/><path id="Line_23" data-name="Line 23" class="cls-1" transform="translate(38.095 7.619)" d="M7.619 0H0"/><path id="Line_24" data-name="Line 24" class="cls-1" transform="translate(48 4.762)" d="M0 0l5.333 5.333"/><path id="Line_25" data-name="Line 25" class="cls-1" transform="translate(48 4.762)" d="M5.333 0L0 5.333"/></g></g></svg>