<svg xmlns="http://www.w3.org/2000/svg" viewBox="0 0 83 83"><defs><style>.cls-1{fill:none;stroke:#e98024;stroke-miterlimit:10;stroke-width:3px}</style></defs><g id="Group_80" data-name="Group 80" transform="translate(-834.5 -2719.5)"><g id="Group_79" data-name="Group 79" transform="translate(836 2721)"><g id="Group_77" data-name="Group 77" transform="translate(0 38.261)"><path id="Rectangle_62" data-name="Rectangle 62" class="cls-1" d="M0 0h41.739v31.304H0z"/><path id="Line_26" data-name="Line 26" class="cls-1" transform="translate(5.217 41.739)" d="M0 0h31.304"/><path id="Path_110" data-name="Path 110" class="cls-1" d="M23.9 51.435H8.6L11.557 41h9.391z" transform="translate(4.617 -9.696)"/><path id="Line_27" data-name="Line 27" class="cls-1" transform="translate(0 26.087)" d="M0 0h41.739"/></g><g id="Group_78" data-name="Group 78" transform="translate(38.261)"><path id="Rectangle_63" data-name="Rectangle 63" class="cls-1" d="M0 0h41.739v31.304H0z"/><path id="Line_28" data-name="Line 28" class="cls-1" transform="translate(5.217 41.739)" d="M0 0h31.304"/><path id="Path_111" data-name="Path 111" class="cls-1" d="M45.9 29.435H30.6L33.557 19h9.391z" transform="translate(-17.383 12.304)"/><path id="Line_29" data-name="Line 29" class="cls-1" transform="translate(0 26.087)" d="M0 0h41.739"/></g><path id="Path_112" data-name="Path 112" class="cls-1" d="M27 44.391h13.913V27" transform="translate(18.217 18.217)"/><path id="Path_113" data-name="Path 113" class="cls-1" d="M13 29.13V10h13.913" transform="translate(7.87 5.652)"/></g></g></svg>