<svg version="1.1" id="svg" xmlns="http://www.w3.org/2000/svg" x="0" y="0" viewBox="0 0 147 126" xml:space="preserve"><style>.orange_x002D_fill{fill:#e98024}</style><switch><g><path class="orange_x002D_fill" d="M131.3 31.1v53.1H5.2V10.6h121.2c-.3-.8-.3-1.8-.3-2.6s0-1.8.3-2.6H5.2c-2.9 0-5.3 2.4-5.3 5.3v89.4c0 2.9 2.4 5.3 5.3 5.3h52.6v10.5H43.3c-3.9 0-7.6 2.4-9.5 5.8l-.5.8c-.8 1.8.5 3.7 2.4 3.7h65.2c1.8 0 3.2-2.1 2.4-3.7l-.5-.8c-1.8-3.4-5.5-5.8-9.5-5.8H78.8v-10.5h52.6c2.9 0 5.3-2.4 5.3-5.3V24.2l-5.4 6.9zM68.2 99.9c-2.9 0-5.3-2.4-5.3-5.3s2.4-5.3 5.3-5.3 5.3 2.4 5.3 5.3-2.4 5.3-5.3 5.3z"/><path class="orange_x002D_fill" d="M139.2 0c-4.5 0-7.9 3.4-7.9 7.9 0 1.6.5 3.2 1.3 4.2l-17.3 22.3c-.8 0-1.6-.3-2.4-.3-1.6 0-2.9.5-4.2 1.3l-12.1-9.2c.3-.8.5-1.6.5-2.4 0-4.5-3.4-7.9-7.9-7.9s-7.9 3.4-7.9 7.9c0 1.8.5 3.4 1.6 4.7L70.1 47.9c-.5-.5-1.1-.5-1.8-.5-1.6 0-3.2.5-4.5 1.3l-9.2-6.8c.3-.8.3-1.6.3-2.4 0-4.5-3.4-7.9-7.9-7.9s-7.9 3.4-7.9 7.9c0 1.3.3 2.6 1.1 3.7l-19 20.5c-.8-.3-1.8-.5-2.9-.5-4.5 0-7.9 3.4-7.9 7.9s3.4 7.9 7.9 7.9 7.9-3.4 7.9-7.9c0-1.3-.3-2.6-1.1-3.7L44 46.9c1.1.5 2.1.5 3.2.5 1.6 0 3.2-.5 4.5-1.3l9.2 6.8c-.3.8-.5 1.6-.5 2.4 0 4.5 3.4 7.9 7.9 7.9s7.9-3.4 7.9-7.9c0-1.8-.5-3.4-1.6-4.7l12.9-19.2c.5.3 1.1.3 1.8.3 1.6 0 2.9-.5 4.2-1.3l12.1 9.2c-.3 1.1-.5 1.8-.5 2.6 0 4.5 3.4 7.9 7.9 7.9s7.9-3.4 7.9-7.9c0-1.6-.5-3.2-1.3-4.2l17.3-22.3c.8.3 1.6.5 2.4.5 4.5 0 7.9-3.4 7.9-7.9s-3.5-8.3-8-8.3z"/></g></switch></svg>