<svg version="1.1" id="svg" xmlns="http://www.w3.org/2000/svg" x="0" y="0" viewBox="0 0 150 150" xml:space="preserve"><style>.orange_x002D_stroke{fill:none;stroke:#e98024;stroke-width:2;stroke-miterlimit:10}.orange_x002D_fill{fill:#e98024}</style><switch><g><path class="orange_x002D_stroke" d="M2.7 27.5c-.8.4-1.4 1.1-1.5 2-.3 2.4-.3 4.8 0 7.2.1.9.7 1.6 1.5 2L7 40.6l.6 2.1-2.4 4.1c-.4.8-.4 1.7 0 2.4 1.2 2.1 2.6 4.1 4.2 5.9.6.7 1.5 1 2.4.8l4.5-1c.5.4 1.1.8 1.7 1.2l.4 4.8c.1.9.6 1.6 1.4 2 2.2 1 4.4 1.8 6.8 2.3.9.2 1.8-.1 2.4-.8l3.1-3.6h2l3.1 3.6c.5.5 1.2.9 1.9.9.2 0 .3 0 .5-.1 2.3-.5 4.6-1.3 6.8-2.3.8-.4 1.3-1.1 1.4-2l.4-4.8c.6-.4 1.1-.8 1.7-1.2l4.5 1c.9.2 1.8-.1 2.4-.8 1.6-1.8 3-3.8 4.2-5.9.4-.8.4-1.7 0-2.4l-2.4-4.1c.2-.7.4-1.3.6-2.1l4.3-1.9c.8-.4 1.4-1.1 1.5-2 .3-2.4.3-4.8 0-7.2-.1-.9-.7-1.6-1.5-2l-4.3-1.9-.6-2.1 2.4-4.1c.4-.8.5-1.7 0-2.4-1.2-2.1-2.6-4.1-4.2-5.9-.6-.7-1.5-1-2.4-.8l-4.5 1c-.5-.4-1.1-.8-1.7-1.2l-.4-4.8c-.1-.9-.6-1.6-1.4-2-2.2-1-4.4-1.8-6.8-2.3-.9-.2-1.8.1-2.4.8l-3.1 3.6h-2L29 1.8c-.6-.7-1.5-1-2.4-.8-2.3.5-4.6 1.3-6.8 2.3-.8.4-1.3 1.1-1.4 2l-.4 4.8c-.6.4-1.1.8-1.7 1.2l-4.5-1c-.9-.2-1.8.1-2.4.8-1.6 1.8-3 3.8-4.2 5.9-.4.8-.4 1.7 0 2.4l2.4 4.1c-.2.7-.4 1.3-.6 2.1l-4.3 1.9z"/><path class="orange_x002D_stroke" d="M33.1 50.3c9.5 0 17.3-7.7 17.3-17.3s-7.7-17.3-17.3-17.3S15.8 23.4 15.8 33c0 9.6 7.7 17.3 17.3 17.3zM147.4 23.1l-3.4-1.5c-.1-.5-.3-.9-.4-1.4l1.9-3.3c.4-.8.4-1.7 0-2.4-1-1.8-2.2-3.4-3.6-5-.6-.7-1.5-1-2.4-.8l-3.6.8c-.4-.3-.7-.5-1.1-.8l-.3-3.7c-.1-.9-.6-1.6-1.4-2-1.8-.9-3.7-1.5-5.7-1.9-.9-.2-1.8.1-2.4.8l-2.4 2.8h-1.3l-2.4-2.8c-.6-.7-1.5-1-2.4-.8-2 .4-3.9 1.1-5.7 1.9-.8.4-1.3 1.1-1.4 2l-.3 3.8c-.4.2-.7.5-1.1.8l-3.6-.8c-.9-.2-1.8.1-2.4.8-1.4 1.5-2.6 3.2-3.5 5-.4.8-.4 1.7 0 2.4l1.9 3.3c-.2.4-.3.9-.4 1.4l-3.4 1.5c-.8.4-1.4 1.1-1.5 2-.2 2-.2 4.1 0 6.1.1.9.7 1.6 1.5 2l3.4 1.5c.1.5.3.9.4 1.4l-1.9 3.3c-.4.8-.4 1.7 0 2.4 1 1.8 2.2 3.4 3.6 5 .6.7 1.5 1 2.4.8l3.6-.8c.4.3.7.5 1.1.8l.3 3.8c.1.9.6 1.6 1.4 2 1.8.9 3.7 1.5 5.7 1.9.9.2 1.8-.1 2.4-.8l2.4-2.8h1.3l2.4 2.8c.5.5 1.2.9 1.9.9.2 0 .3 0 .5-.1 2-.4 3.9-1.1 5.7-1.9.8-.4 1.3-1.1 1.4-2l.3-3.8c.4-.3.7-.5 1.1-.8l3.6.8c.9.2 1.8-.1 2.4-.8 1.4-1.5 2.6-3.2 3.5-5 .4-.8.4-1.7 0-2.4l-1.9-3.3c.2-.4.3-.9.4-1.4l3.4-1.5c.8-.4 1.4-1.1 1.5-2 .2-2 .2-4.1 0-6.1-.2-1-.7-1.8-1.5-2.1z"/><path class="orange_x002D_stroke" d="M121.9 15.8c-6.8 0-12.3 5.5-12.3 12.3s5.5 12.3 12.3 12.3c6.8 0 12.3-5.5 12.3-12.3 0-6.8-5.5-12.3-12.3-12.3z"/><path d="M146.7 105.4l-3.6-.7c-.1-.6-.3-1.2-.5-1.9l2.7-2.5c.8-.7 1-1.8.6-2.8-1.2-2.8-2.7-5.4-4.5-7.8-.6-.8-1.7-1.2-2.7-.9l-3.5 1.1c-.4-.5-.9-.9-1.4-1.4l1.1-3.5c.3-1 0-2.1-.9-2.7-2.4-1.8-5-3.3-7.8-4.5-1-.4-2.1-.2-2.8.6l-2.5 2.7c-.6-.2-1.2-.4-1.9-.5l-.7-3.6c-.2-1-1.1-1.8-2.1-1.9-3-.4-6-.4-9 0-1 .1-1.9.9-2.1 1.9l-.7 3.6c-.6.1-1.2.3-1.9.5l-2.5-2.7c-.7-.8-1.8-1-2.8-.6-2.8 1.2-5.4 2.7-7.8 4.5-.8.6-1.2 1.7-.9 2.7l1.1 3.5c-.5.4-.9.9-1.4 1.4l-3.5-1.1c-1-.3-2.1 0-2.7.9-1.8 2.4-3.3 5-4.5 7.7-.4 1-.2 2.1.6 2.8l2.7 2.5c-.2.6-.4 1.2-.5 1.9l-3.6.7c-1 .2-1.8 1.1-1.9 2.1-.4 3-.4 6 0 9 .1 1 .9 1.9 1.9 2.1l3.6.7c.1.6.3 1.2.5 1.9l-2.7 2.5c-.8.7-1 1.8-.6 2.8 1.2 2.8 2.7 5.4 4.5 7.8.6.8 1.7 1.2 2.7.9l3.5-1.1c.4.5.9.9 1.4 1.4l-1.1 3.5c-.3 1 0 2.1.9 2.7 2.4 1.8 5 3.3 7.8 4.5 1 .4 2.1.2 2.8-.6l2.5-2.7c.6.2 1.2.4 1.9.5l.7 3.6c.2 1 1.1 1.8 2.1 1.9 3 .4 6 .4 9 0 1-.1 1.9-.9 2.1-1.9l.7-3.6c.6-.1 1.2-.3 1.9-.5l2.5 2.7c.7.8 1.8 1 2.8.6 2.8-1.2 5.4-2.7 7.8-4.5.8-.6 1.2-1.7.9-2.7l-1.1-3.5c.5-.4.9-.9 1.4-1.4l3.5 1.1c1 .3 2.1 0 2.7-.9 1.8-2.4 3.3-5 4.5-7.8.4-1 .2-2.1-.6-2.8l-2.7-2.5c.2-.6.4-1.2.5-1.9l3.6-.7c1-.2 1.8-1.1 1.9-2.1.4-3 .4-6 0-9 0-1-.8-1.8-1.9-2z" fill="none" stroke="#e98024" stroke-width="2" stroke-miterlimit="10"/><path d="M112 89.8c-12.3 0-22.2 9.9-22.2 22.2s9.9 22.2 22.2 22.2 22.2-9.9 22.2-22.2c0-12.3-10-22.2-22.2-22.2z" fill="#e98024"/><path class="orange_x002D_fill" d="M70.1 29.7h19.7v3.4H70.1zM68.6 107.3l-17.3-7.4c-.8-.3-1.6-.3-2.3.2-.7.5-1.1 1.2-1.1 2.1v4.9H16.7V67.6h-3.4V108c0 1.4 1.1 2.5 2.5 2.5h32.1v6.5c0 1.4 1.1 2.5 2.5 2.5.3 0 .7-.1 1-.2l17.3-7.4c1.3-.5 1.8-2 1.3-3.2-.4-.7-.9-1.2-1.4-1.4zm-15.8 5.9v-7.3l8.5 3.7-8.5 3.6z"/><path d="M109.4 115.7l-5.5-5.5-3.5 3.5 7.4 7.4c.5.5 1.1.7 1.7.7h.1c.7 0 1.3-.4 1.8-.9l12.3-14.8-3.7-3.1-10.6 12.7z" fill="#fff"/></g></switch></svg>