<svg version="1.1" id="svg" xmlns="http://www.w3.org/2000/svg" x="0" y="0" viewBox="0 0 150 136.5" xml:space="preserve"><style>.orange_x002D_fill,.st0{fill:#e98024}</style><switch><g><path class="orange_x002D_fill" d="M141.3 0H8.7C3.9 0 0 3.9 0 8.6v97.2c0 4.8 3.9 8.6 8.6 8.6h51.6l-4 19.3H44.6c-.8 0-1.4.6-1.4 1.4 0 .8.6 1.4 1.4 1.4h60.7c.8 0 1.4-.6 1.4-1.4 0-.7-.6-1.4-1.4-1.4H93.7l-4-19.3h51.6c4.8 0 8.6-3.9 8.6-8.6V8.6c.1-4.7-3.8-8.6-8.6-8.6zM91 133.8H59l4-19.3h24l4 19.3zm56.2-28c0 3.2-2.6 5.9-5.9 5.9H8.7c-3.3 0-5.9-2.7-5.9-5.9V8.6c0-3.3 2.7-5.9 5.9-5.9h132.7c3.3 0 5.9 2.6 5.9 5.9v97.2z"/><path class="orange_x002D_fill" d="M141.2 8H8.8c-.7 0-1.3.6-1.3 1.4v88.9c0 .8.6 1.4 1.4 1.4h132.4c.8 0 1.4-.6 1.4-1.4V9.4c-.2-.8-.8-1.4-1.5-1.4zM74.6 84.7c-17 0-30.8-13.8-30.8-30.8S57.6 23 74.6 23s30.9 13.8 30.9 30.9c0 16.9-13.9 30.8-30.9 30.8z"/><path class="st0" d="M84.2 104.2H65.8c-.8 0-1.4.6-1.4 1.4 0 .8.6 1.4 1.4 1.4h18.3c.8 0 1.4-.6 1.4-1.4 0-.8-.6-1.4-1.3-1.4z"/><path class="orange_x002D_fill" d="M75 27.6c-14.5 0-26.2 11.7-26.2 26.2S60.5 80 75 80s26.2-11.7 26.2-26.2S89.5 27.6 75 27.6zM55.8 41.3l1.1 1.1v6.7l-3.3-3.3c.6-1.6 1.3-3.1 2.2-4.5zM75 76.6c-12.6 0-22.8-10.2-22.8-22.8 0-2.4.4-4.6 1-6.7l3.7 3.7v7.4l6 6c-.9 1.3-.8 3.2.4 4.4 1.3 1.3 3.5 1.3 4.9 0s1.3-3.5 0-4.9c-1.2-1.2-3-1.3-4.4-.4l-5.6-5.6V52l4 4c-.9 1.3-.8 3.2.4 4.4 1.3 1.3 3.5 1.3 4.9 0 1.3-1.3 1.3-3.5 0-4.9-1.2-1.2-3-1.3-4.4-.4l-4.8-4.8v-8.4l-1.6-1.6c.5-.7 1.1-1.4 1.8-2.1l4.5 4.4V48l10.6 10.6c-.9 1.3-.8 3.2.4 4.4 1.3 1.3 3.5 1.3 4.9 0 1.3-1.3 1.3-3.5 0-4.9-1.2-1.2-3-1.3-4.4-.4L63.9 47.5v-5.3l-4.8-4.8c.3-.3.7-.6 1-.9L84 60.3c-.9 1.3-.8 3.2.4 4.4 1.4 1.4 3.6 1.3 5-.1 1.2-1.3 1.2-3.5-.1-4.8-1.2-1.2-3.1-1.3-4.4-.4L61.1 35.7c.4-.3.7-.6 1.2-.8l8.2 8.2h5.3l3.6 3.6c-.9 1.3-.8 3.2.4 4.4 1.3 1.3 3.5 1.3 4.9 0s1.3-3.5 0-4.9c-1.2-1.2-3-1.3-4.4-.4l-4-4H71l-7.7-7.6c2.3-1.4 4.9-2.4 7.6-2.9l4.6 4.6c-.9 1.3-.8 3.2.4 4.4 1.3 1.3 3.5 1.3 4.9 0 1.3-1.3 1.3-3.5 0-4.9-1.2-1.2-3-1.3-4.4-.4l-4-4c.9-.1 1.7-.2 2.6-.2 12.6 0 22.8 10.2 22.8 22.8s-10.2 23-22.8 23zM64.1 64.5c.9-.9 2.3-.9 3.2 0 .9.9.9 2.3 0 3.2-.9.9-2.3.9-3.2 0s-.9-2.3 0-3.2zm-.8-8.1c.9-.9 2.3-.9 3.2 0 .9.9.9 2.3 0 3.2s-2.3.9-3.2 0c-.9-.9-.9-2.4 0-3.2zM74.5 59c.9-.9 2.3-.9 3.2 0 .9.9.9 2.3 0 3.2s-2.3.9-3.2 0c-.8-.9-.8-2.4 0-3.2zm10.8 1.7c.9-.9 2.3-.9 3.2 0s.9 2.3 0 3.2c-.9.9-2.3.9-3.2 0-.9-.9-.9-2.3 0-3.2zM80.6 47c.9-.9 2.3-.9 3.2 0 .9.9.9 2.3 0 3.2-.9.9-2.3.9-3.2 0s-.9-2.3 0-3.2zm-3.9-10.7c.9-.9 2.3-.9 3.2 0 .9.9.9 2.3 0 3.2-.9.9-2.3.9-3.2 0-.8-.9-.8-2.3 0-3.2z"/><path class="st0" d="M75 27.6c-14.5 0-26.2 11.7-26.2 26.2S60.5 80 75 80s26.2-11.7 26.2-26.2S89.5 27.6 75 27.6zM55.8 41.3l1.1 1.1v6.7l-3.3-3.3c.6-1.6 1.3-3.1 2.2-4.5zM75 76.6c-12.6 0-22.8-10.2-22.8-22.8 0-2.4.4-4.6 1-6.7l3.7 3.7v7.4l6 6c-.9 1.3-.8 3.2.4 4.4 1.3 1.3 3.5 1.3 4.9 0s1.3-3.5 0-4.9c-1.2-1.2-3-1.3-4.4-.4l-5.6-5.6V52l4 4c-.9 1.3-.8 3.2.4 4.4 1.3 1.3 3.5 1.3 4.9 0 1.3-1.3 1.3-3.5 0-4.9-1.2-1.2-3-1.3-4.4-.4l-4.8-4.8v-8.4l-1.6-1.6c.5-.7 1.1-1.4 1.8-2.1l4.5 4.4V48l10.6 10.6c-.9 1.3-.8 3.2.4 4.4 1.3 1.3 3.5 1.3 4.9 0 1.3-1.3 1.3-3.5 0-4.9-1.2-1.2-3-1.3-4.4-.4L63.9 47.5v-5.3l-4.8-4.8c.3-.3.7-.6 1-.9L84 60.3c-.9 1.3-.8 3.2.4 4.4 1.4 1.4 3.6 1.3 5-.1 1.2-1.3 1.2-3.5-.1-4.8-1.2-1.2-3.1-1.3-4.4-.4L61.1 35.7c.4-.3.7-.6 1.2-.8l8.2 8.2h5.3l3.6 3.6c-.9 1.3-.8 3.2.4 4.4 1.3 1.3 3.5 1.3 4.9 0s1.3-3.5 0-4.9c-1.2-1.2-3-1.3-4.4-.4l-4-4H71l-7.7-7.6c2.3-1.4 4.9-2.4 7.6-2.9l4.6 4.6c-.9 1.3-.8 3.2.4 4.4 1.3 1.3 3.5 1.3 4.9 0 1.3-1.3 1.3-3.5 0-4.9-1.2-1.2-3-1.3-4.4-.4l-4-4c.9-.1 1.7-.2 2.6-.2 12.6 0 22.8 10.2 22.8 22.8s-10.2 23-22.8 23zM64.1 64.5c.9-.9 2.3-.9 3.2 0 .9.9.9 2.3 0 3.2-.9.9-2.3.9-3.2 0s-.9-2.3 0-3.2zm-.8-8.1c.9-.9 2.3-.9 3.2 0 .9.9.9 2.3 0 3.2s-2.3.9-3.2 0c-.9-.9-.9-2.4 0-3.2zM74.5 59c.9-.9 2.3-.9 3.2 0 .9.9.9 2.3 0 3.2s-2.3.9-3.2 0c-.8-.9-.8-2.4 0-3.2zm10.8 1.7c.9-.9 2.3-.9 3.2 0s.9 2.3 0 3.2c-.9.9-2.3.9-3.2 0-.9-.9-.9-2.3 0-3.2zM80.6 47c.9-.9 2.3-.9 3.2 0 .9.9.9 2.3 0 3.2-.9.9-2.3.9-3.2 0s-.9-2.3 0-3.2zm-3.9-10.7c.9-.9 2.3-.9 3.2 0 .9.9.9 2.3 0 3.2-.9.9-2.3.9-3.2 0-.8-.9-.8-2.3 0-3.2z"/></g></switch></svg>