<svg version="1.1" id="svg" xmlns="http://www.w3.org/2000/svg" x="0" y="0" viewBox="0 0 150 136.5" xml:space="preserve"><style>.orange_x002D_fill{fill:#e98024}</style><switch><g><path class="orange_x002D_fill" d="M141.3 0H8.7C3.9 0 0 3.9 0 8.6v97.2c0 4.8 3.9 8.6 8.6 8.6h51.6l-4 19.3H44.6c-.8 0-1.4.6-1.4 1.4 0 .8.6 1.4 1.4 1.4h60.7c.8 0 1.4-.6 1.4-1.4 0-.7-.6-1.4-1.4-1.4H93.7l-4-19.3h51.6c4.8 0 8.6-3.9 8.6-8.6V8.6c.1-4.7-3.8-8.6-8.6-8.6zM91 133.8H59l4-19.3h24l4 19.3zm56.2-28c0 3.2-2.6 5.9-5.9 5.9H8.7c-3.3 0-5.9-2.7-5.9-5.9V8.6c0-3.3 2.7-5.9 5.9-5.9h132.7c3.3 0 5.9 2.6 5.9 5.9v97.2z"/><path class="orange_x002D_fill" d="M141.2 8H8.8c-.7 0-1.3.6-1.3 1.4v88.9c0 .8.6 1.4 1.4 1.4h132.4c.8 0 1.4-.6 1.4-1.4V9.4c-.2-.8-.8-1.4-1.5-1.4zM74.6 84.7c-17 0-30.8-13.8-30.8-30.8S57.6 23 74.6 23s30.9 13.8 30.9 30.9c0 16.9-13.9 30.8-30.9 30.8zM84.2 104.2H65.8c-.8 0-1.4.6-1.4 1.4 0 .8.6 1.4 1.4 1.4h18.3c.8 0 1.4-.6 1.4-1.4 0-.8-.6-1.4-1.3-1.4z"/><path class="orange_x002D_fill" d="M91.7 41L68.9 63.8 57.6 52.5c-.5-.5-1.4-.5-1.9 0s-.5 1.4 0 1.9L68 66.7c.3.3.6.4 1 .4s.7-.1 1-.4l23.8-23.8c.5-.5.5-1.4 0-1.9-.7-.5-1.6-.5-2.1 0z"/></g></switch></svg>