<svg version="1.1" id="svg" xmlns="http://www.w3.org/2000/svg" x="0" y="0" viewBox="0 0 150 101" xml:space="preserve"><style>.orange_x002D_stroke{fill-rule:evenodd;clip-rule:evenodd;fill:none;stroke:#e98024;stroke-width:2;stroke-miterlimit:10}.st1{fill:#e98024}.st2{fill:none;stroke:#e98024;stroke-width:2;stroke-miterlimit:10}</style><switch><g><path class="orange_x002D_stroke" d="M11.6 11.6H149v88.3H11.6z"/><path class="orange_x002D_stroke" d="M9.8 94.6H6.3V6.4h137.4v3.4"/><path class="orange_x002D_stroke" d="M4.5 89.4H1V1.2h137.4v3.4"/><path class="st1" d="M35.7 25.4v24.3h4.9V85H25.5V49.7h5.1V25.4h5.1m1-1h-7.2v24.3h-5.1V86h17.1V48.7h-4.9V24.4h.1zM65.7 35.8V49h-4.9v24.1h-5.2V49h-5.1V35.8h15.2m1-1H49.6V50h5.1v24.1h7.2V50h4.9V34.8h-.1zM92 23.3v4.4h5v35.5h-5v3.6h-5v-3.6h-5V27.7h5v-4.4h5m1-1h-7v4.4h-5v37.5h5v3.6h7v-3.6h5V26.7h-5v-4.4zM119.6 46.3v4.6h4.9v35.3h-4.9v3.6h-5.2v-3.6h-5.1V50.8h5.1v-4.6h5.2m1-.9h-7.2v4.6h-5.1v37.3h5.1v3.6h7.2v-3.6h4.9V49.8h-4.9v-4.5z"/><g><path class="st2" d="M25 85.5V49.2h5.1V24.9h6.1v24.3h4.9v36.3z"/><path class="st2" d="M35.7 25.4v24.3h4.9V85H25.5V49.7h5.1V25.4h5.1m1-1h-7.2v24.3h-5.1V86h17.1V48.7h-4.9V24.4h.1zM55.2 73.6V49.5h-5V35.3h16v14.2h-4.8v24.1z"/><path class="st2" d="M65.7 35.8V49h-4.9v24.1h-5.2V49h-5.1V35.8h15.2m1-1H49.6V50h5.1v24.1h7.2V50h4.9V34.8h-.1z"/><g><path class="st2" d="M86.5 67.2v-3.5h-5V27.2h5v-4.4h6v4.4h5v36.5h-5v3.5z"/><path class="st2" d="M92 23.3v4.4h5v35.5h-5v3.6h-5v-3.6h-5V27.7h5v-4.4h5m1-1h-7v4.4h-5v37.5h5v3.6h7v-3.6h5V26.7h-5v-4.4z"/></g><g><path class="st2" d="M114 90.2v-3.6h-5.1V50.3h5.1v-4.5h6.1v4.5h4.9v36.3h-4.9v3.6z"/><path class="st2" d="M119.6 46.3v4.6h4.9v35.3h-4.9v3.6h-5.2v-3.6h-5.1V50.8h5.1v-4.6h5.2m1-.9h-7.2v4.6h-5.1v37.3h5.1v3.6h7.2v-3.6h4.9V49.8h-4.9v-4.5z"/></g></g></g></switch></svg>