<svg version="1.1" id="Layer_1" xmlns="http://www.w3.org/2000/svg" x="0" y="0" viewBox="0 0 150 102.5" xml:space="preserve"><style>.orange_x002D_stroke{fill-rule:evenodd;clip-rule:evenodd;fill:none;stroke:#e98024;stroke-width:2;stroke-miterlimit:10}</style><switch><g><path class="orange_x002D_stroke" d="M11.6 11.6H149v89.9H11.6z"/><path class="orange_x002D_stroke" d="M9.8 96.2H6.3V6.3h137.4v3.5"/><path class="orange_x002D_stroke" d="M4.5 90.9H1V1h137.4v3.5"/><path class="orange_x002D_stroke" d="M140.3 55.6l-7.7 7.5c.3.8.4 1.6.4 2.4 0 4-3.2 7.1-7.1 7.1-4 0-7.1-3.2-7.1-7.1 0-.9.1-1.7.5-2.5L105 48.7c-.9.5-2.1.9-3.3.9-1.2 0-2.4-.3-3.4-.9L66.7 80.3c.3.7.4 1.5.4 2.4 0 4-3.2 7.1-7.1 7.1s-7.1-3.2-7.1-7.1c0-.8.1-1.6.4-2.4L38.1 65c-1.1.7-2.2.9-3.6.9-1.3 0-2.5-.4-3.7-1.1l-4.8 5c-.9.9-2.2.9-3.2 0s-.9-2.2 0-3.2l5.2-5.2c-.4-.7-.5-1.6-.5-2.6 0-4 3.2-7.1 7.1-7.1s7.1 3.2 7.1 7.1c0 1.1-.1 2-.7 2.9l15 15.1c1.1-.8 2.5-1.2 4-1.2s2.9.4 4 1.2l31.2-31.3c-.4-.9-.7-1.9-.7-2.9 0-4 3.2-7.1 7.1-7.1s7.1 3.2 7.1 7.1c0 1.1-.3 2.1-.7 3l14 14c1.1-.7 2.5-1.2 3.8-1.2 1.5 0 2.8.4 4 1.2l7.3-7.1c.9-.9 2.2-.9 3.2 0 .9.9.9 2.2 0 3.1z"/></g></switch></svg>