<svg xmlns="http://www.w3.org/2000/svg" viewBox="0 0 140 150"><switch><g><path d="M59.5 0c-.1 0-.2 0-.3.1-1.9.3-3.2 2-2.9 3.8.1 1 .8 2 1.7 2.5l6.8 4.1C28.6 13.1 0 43.3 0 80.1 0 118.7 31.4 150 70 150s70-31.3 70-69.9c0-17-6.1-32.7-16.2-44.8-1.1-1.5-3.3-1.8-4.8-.7s-1.8 3.3-.7 4.8l.3.3c9.1 10.9 14.6 25.1 14.6 40.4 0 34.9-28.2 63-63.2 63S6.8 115 6.8 80.1c0-32.8 25.1-59.8 57.1-62.8L58 21c-1.6 1-2.1 3.1-1.2 4.7s3.1 2.1 4.7 1.2l17.1-10.2c1.6-1 2.2-3.1 1.2-4.7-.3-.5-.7-.9-1.2-1.2L61.5.5c-.6-.4-1.3-.5-2-.5zM70 34.1c-25.4 0-46.1 20.6-46.1 46s20.7 46 46.1 46 46.1-20.6 46.1-46-20.7-46-46.1-46zm0 6.8c21.7 0 39.3 17.5 39.3 39.2S91.7 119.3 70 119.3s-39.3-17.5-39.3-39.2S48.3 40.9 70 40.9zm-.4 10.2c-1.8.2-3.1 1.7-3 3.5v25.6c0 1.2.7 2.4 1.8 3l15.4 8.5c1.7.9 3.7.3 4.6-1.3s.3-3.7-1.3-4.6l-13.6-7.6V54.6c0-1.9-1.5-3.4-3.4-3.5h-.5z" fill="#e98024"/></g></switch></svg>