<svg id="Group_55" data-name="Group 55" xmlns="http://www.w3.org/2000/svg" viewBox="0 0 82 82">
  <defs>
    <style>
      .cls-1 {
        fill: #fff;
      }

      .cls-2 {
        fill: none;
        stroke: #fff;
        stroke-miterlimit: 10;
        stroke-width: 2px;
      }
    </style>
  </defs>
  <path id="Path_100" data-name="Path 100" class="cls-1" d="M56.81,52.746h0a.937.937,0,0,0,.936-.936V21.082A2.282,2.282,0,0,0,55.464,18.8H30.857a4.314,4.314,0,0,0-4.307,4.307V55.162a4.314,4.314,0,0,0,4.307,4.307h12.2v5.347l3.724-1.786,3.724,1.786V59.468H56.8a.934.934,0,0,0,0-1.862h-.936V52.756h.945ZM28.422,23.1a2.447,2.447,0,0,1,2.435-2.444h2.731V50.846H30.857a4.306,4.306,0,0,0-2.444.764ZM43.069,57.6H30.857a2.443,2.443,0,0,1,0-4.879h12.2V57.6Zm5.586,4.249-1.862-.9-1.862.9V52.727h3.724ZM54,57.6H50.518V52.746h3.514ZM35.449,50.855V20.662h20a.424.424,0,0,1,.42.42V50.855H35.449Z" transform="translate(-1.153 -0.803)"/>
  <path id="Path_101" data-name="Path 101" class="cls-2" d="M81,41A40,40,0,1,1,41,1,40,40,0,0,1,81,41Z"/>
</svg>
