<svg xmlns="http://www.w3.org/2000/svg" viewBox="0 0 80 48.684"><defs><style>.a{fill:#e98024;}</style></defs><g transform="translate(-573 -3378)"><g transform="translate(573 3378)"><path class="a" d="M21.518,43.1A21.574,21.574,0,0,0,43.035,21.506a6.507,6.507,0,0,0-.085-1.285l7.3-8.354,9.82,9.04a.606.606,0,0,0,.683.214.645.645,0,0,0,.6-.3L72.067,8.867,74.458,11.1a.7.7,0,0,0,.6.214h.213a.847.847,0,0,0,.6-.6l2.519-8.654a.976.976,0,0,0-.213-.9.968.968,0,0,0-.9-.214l-8.624,2.87a.97.97,0,0,0-.6.685.884.884,0,0,0,.3.9l2.391,2.228L60.625,18.978l-9.82-9.04a.786.786,0,0,0-.683-.214.645.645,0,0,0-.6.3l-6.916,7.84A21.612,21.612,0,0,0,21.39,0a21.55,21.55,0,0,0,.128,43.1ZM76.294,3.212,74.671,8.739l-3.885-3.6ZM40.73,21.506a19.145,19.145,0,0,1-6.7,14.566l-11.1-14.48L35.35,8.139A19.284,19.284,0,0,1,40.73,21.506ZM22.628,2.227A18.986,18.986,0,0,1,33.856,6.64L22.628,18.678Zm-2.22,0V21.506h0v.086a.409.409,0,0,0,.085.3,3159460.321,3159460.321,0,0,1,.171.171l11.7,15.252A19.22,19.22,0,1,1,20.408,2.227Z" transform="translate(0 0.001)"/><rect class="a" width="6.495" height="9.101" transform="translate(42.443 32.84)"/><rect class="a" width="6.495" height="19.03" transform="translate(51.342 22.911)"/><rect class="a" width="6.495" height="16.879" transform="translate(60.284 25.062)"/><rect class="a" width="6.495" height="24.822" transform="translate(69.368 17.119)"/><path class="a" d="M84.528,109.5H10.383a.977.977,0,0,0-.983.951,1.076,1.076,0,0,0,.983.951H84.528a.952.952,0,1,0,0-1.9Z" transform="translate(-5.511 -62.719)"/></g></g></svg>