<svg xmlns="http://www.w3.org/2000/svg" viewBox="0 0 80 71.951"><defs><style>.a{fill:#e98024;}</style></defs><g transform="translate(-523.512 -3036.524)"><g transform="translate(523.512 3036.523)"><path class="a" d="M52.18,43.4A1.115,1.115,0,0,0,51,44.58v3.539a1.18,1.18,0,1,0,2.359,0V44.58A1.182,1.182,0,0,0,52.18,43.4Z" transform="translate(10.988 3.288)"/><path class="a" d="M56.18,39.4A1.115,1.115,0,0,0,55,40.58v8.258a1.18,1.18,0,1,0,2.36,0V40.58A1.182,1.182,0,0,0,56.18,39.4Z" transform="translate(10.276 2.699)"/><path class="a" d="M60.28,34.4a1.115,1.115,0,0,0-1.18,1.18V49.737a1.18,1.18,0,1,0,2.36,0V35.58A1.269,1.269,0,0,0,60.28,34.4Z" transform="translate(11.013 1.992)"/><path class="a" d="M73.548,6.3H26.123c.108.751.215,1.4.323,2.147H74.83a2.157,2.157,0,0,1,2.154,2.147V53.749H29.353a2.04,2.04,0,0,0,.538-2.04l2.046-1.932a16.247,16.247,0,0,0,21.969-6.763,15.826,15.826,0,0,0,1.508-10.842,11.7,11.7,0,0,0-.538-1.825l5.169-5.153v2.791a1.077,1.077,0,0,0,2.154,0v-5.9c0-.107-.108-.107-.108-.215l-.108-.107c-.108-.107-.215-.107-.323-.215h0c-.108,0-.215-.107-.323-.107H55.63a1.074,1.074,0,1,0,0,2.147h2.8l-4.523,4.509-.323-.644h0A16.211,16.211,0,0,0,23.323,37.539a4.553,4.553,0,0,0,.215,1.181,1.522,1.522,0,0,0,.215.644l-3.769,3.221-9.046-6.978a1.308,1.308,0,0,0-1.615.215.971.971,0,0,0,.215,1.5l9.692,7.515a1.135,1.135,0,0,0,1.4,0L24.4,41.619l.323.644a16.4,16.4,0,0,0,2.046,3.221l-1.508,1.5a2.055,2.055,0,0,0-2.046.537l-6.031,6.119H6.954V25.409A8.225,8.225,0,0,1,4.8,24.764V57.936A4.29,4.29,0,0,0,8.461,62.23L6.523,64.162a2.071,2.071,0,0,0,0,3.006h0l3.015,3.006a2.087,2.087,0,0,0,3.015,0h0l7.969-8.051H30.646V64.27H29.569a5.324,5.324,0,0,0-5.385,5.368,1.016,1.016,0,0,0,1.077,1.074H49.168a1.016,1.016,0,0,0,1.077-1.074,5.324,5.324,0,0,0-5.384-5.368H43.784V62.123H74.83a4.313,4.313,0,0,0,4.308-4.294V10.594A4.313,4.313,0,0,0,74.83,6.3ZM28.492,49.885l-1.508-1.5,1.292-1.288a18.7,18.7,0,0,0,1.615,1.4Zm14.861-1.074A14.029,14.029,0,0,1,27.2,42.155l6.892-5.9,7.646,5.9a3.287,3.287,0,0,0,4.308-.215l7.431-7.407A13.822,13.822,0,0,1,43.353,48.811ZM35.492,21.866a14.031,14.031,0,0,1,15.723,5.9l-7.646,7.622L36.03,29.6a3.254,3.254,0,0,0-4.092.107l-6.569,5.475A14.15,14.15,0,0,1,35.492,21.866ZM26.23,40.116l-.108-.322c-.108-.215-.108-.429-.215-.644a.809.809,0,0,1-.108-.429c0-.107-.108-.429-.108-.644v-.215l7.754-6.441a1.135,1.135,0,0,1,1.4,0l8.184,6.334a1.009,1.009,0,0,0,1.4-.107L52.4,29.7l.108.322a1.522,1.522,0,0,1,.215.644c0,.215.108.322.108.429a2.221,2.221,0,0,0,.215.644v.215l-8.508,8.481a1.017,1.017,0,0,1-1.4.107l-8.4-6.441a1.135,1.135,0,0,0-1.4,0Zm-1.508,9.017,3.015,3.006-1.292,1.288L23.43,50.421ZM6.954,58.043V55.9h7.969L10.615,60.19h-1.4a2.183,2.183,0,0,1-2.261-2.147Zm12.492,2.469h0l-8.292,8.266L8.031,65.773l10.231-10.2h0l3.554-3.543,3.123,3.006Zm25.415,6.119a3.136,3.136,0,0,1,3.015,2.147H26.661a3.239,3.239,0,0,1,3.015-2.147ZM33.015,64.484V62.337H41.63v2.147Zm43.969-6.441A2.157,2.157,0,0,1,74.83,60.19H22.892L27.2,55.9H76.983Z" transform="translate(0.863 1.132)"/><path class="a" d="M22,11.206h2.006v-.118A10.8,10.8,0,0,0,23.888,9.2Z" transform="translate(3.954 1.654)"/><path class="a" d="M19.153,1.4,12.9,7.653V9.658l7.432-7.55a6.249,6.249,0,0,0-1.18-.708Z" transform="translate(2.319 0.252)"/><path class="a" d="M16.339.4,12.8,3.939V5.827L17.755.872A6.651,6.651,0,0,0,16.339.4Z" transform="translate(2.301 0.072)"/><path class="a" d="M14.67.118A8.929,8.929,0,0,0,12.9,0h0V2.006Z" transform="translate(2.319)"/><path class="a" d="M17.306,12.032,23.676,5.78A7.162,7.162,0,0,0,22.85,4.6L15.3,12.15Z" transform="translate(2.75 0.827)"/><path class="a" d="M22.456,3.744l-.472-.472L21.512,2.8,12.9,11.412v1.062h.944Z" transform="translate(2.319 0.503)"/><path class="a" d="M20.688,11.655l3.539-3.539c-.118-.472-.354-.944-.472-1.416L18.8,11.655Z" transform="translate(3.379 1.204)"/><path class="a" d="M12.977,1.9A12.977,12.977,0,1,0,25.954,14.877H12.977Z" transform="translate(0 0.342)"/><ellipse class="a" cx="1.888" cy="1.888" rx="1.888" ry="1.888" transform="translate(59.076 11.111)"/><ellipse class="a" cx="1.888" cy="1.888" rx="1.888" ry="1.888" transform="translate(63.377 11.111)"/><ellipse class="a" cx="1.888" cy="1.888" rx="1.888" ry="1.888" transform="translate(68.922 11.111)"/></g></g></svg>