<svg id="Group_81" data-name="Group 81" xmlns="http://www.w3.org/2000/svg" viewBox="0 0 85.619 80">
  <defs>
    <style>
      .cls-1 {
        fill: #e98024;
      }

      .cls-2 {
        fill: none;
        stroke: #e98024;
        stroke-miterlimit: 10;
        stroke-width: 3px;
      }
    </style>
  </defs>
  <path id="Path_114" data-name="Path 114" class="cls-1" d="M44.415,64.214H59.13V50.033H2.943V2.943H77.057V38.8H80V1.338A1.264,1.264,0,0,0,78.662,0H1.338A1.264,1.264,0,0,0,0,1.338V62.609a1.5,1.5,0,0,0,1.338,1.605h33.98L28.629,77.057H12.575V80H67.425V77.057H50.836ZM39.866,59.4a2.676,2.676,0,0,1,0-5.351,2.877,2.877,0,0,1,2.676,2.676C42.809,58.328,41.472,59.4,39.866,59.4Z"/>
  <path id="Path_115" data-name="Path 115" class="cls-1" d="M41.459,16.2H28.081A4.226,4.226,0,0,0,23.8,20.481V48.575a4.226,4.226,0,0,0,4.281,4.281H41.459a4.226,4.226,0,0,0,4.281-4.281V20.481A4.226,4.226,0,0,0,41.459,16.2ZM35.037,50.983a2.408,2.408,0,1,1,2.408-2.408A2.4,2.4,0,0,1,35.037,50.983Zm7.492-6.689H27.546V21.016H42.529Z" transform="translate(39.879 27.144)"/>
  <path id="Path_116" data-name="Path 116" class="cls-2" d="M6.9,28.675,18.673,15.832,26.7,21.718l9.632-10.97L42.218,15.3l7.492-9.1" transform="translate(11.562 10.389)"/>
  <path id="Path_117" data-name="Path 117" class="cls-2" d="M26.3,26.248l2.408-2.676,1.605,1.338,2.14-2.408,1.338,1.07L35.129,21.7" transform="translate(44.068 36.36)"/>
</svg>
